<?xml version="1.0" encoding="UTF-8"?><svg id="b" xmlns="http://www.w3.org/2000/svg" width="277.24" height="41.77" viewBox="0 0 277.24 41.77"><g id="c"><path d="M72.48,19.63v-.22c1.87-.47,3.23-1.37,4.08-2.7.84-1.33,1.27-3.06,1.27-5.18s-.4-3.69-1.19-5.02c-.79-1.33-1.96-2.35-3.51-3.05-1.55-.7-3.47-1.05-5.78-1.05h-15.39v36.06h16.41c2.34,0,4.31-.39,5.91-1.16,1.6-.77,2.82-1.94,3.64-3.51.83-1.57,1.24-3.52,1.24-5.86s-.56-4.17-1.67-5.61c-1.12-1.44-2.79-2.34-5.02-2.7ZM60.33,8.99h5.94c.97,0,1.72.12,2.24.35.52.23.88.57,1.08,1,.2.43.3,1.06.3,1.89v1.13c0,.94-.09,1.66-.27,2.16-.18.5-.55.89-1.11,1.16-.56.27-1.29.4-2.19.4h-5.99v-8.1ZM70.75,28.1c0,.9-.1,1.63-.3,2.19-.2.56-.55.96-1.05,1.21-.5.25-1.22.38-2.16.38h-6.91v-9.07h6.05c1.19,0,2.11.15,2.75.46.65.31,1.08.71,1.29,1.21.22.5.32,1.17.32,2v1.62Z" style="fill:#2a7aad;"/><path d="M100.69,10.86c-2.14-.99-4.98-1.48-8.5-1.48-1.48,0-2.94.09-4.4.27-1.46.18-2.73.4-3.81.65v6.21l.27.16c.72-.14,1.81-.3,3.27-.46,1.46-.16,2.87-.24,4.24-.24,1.87,0,3.32.12,4.35.35,1.03.23,1.76.63,2.21,1.19.45.56.67,1.38.67,2.46v1.62h-.16c-.61-.14-1.5-.31-2.67-.51-1.17-.2-2.49-.3-3.97-.3-3.24,0-5.62.82-7.13,2.46-1.51,1.64-2.27,3.93-2.27,6.88s.71,5.05,2.13,6.61c1.42,1.57,3.5,2.35,6.24,2.35,2.23,0,3.97-.36,5.21-1.08,1.24-.72,2.13-1.84,2.67-3.35h.08l1.87,3.83h5.83v-16.3c0-2.84-.49-5.19-1.46-7.05-.97-1.85-2.53-3.27-4.67-4.26ZM96.85,32.5c-.81.27-1.74.4-2.78.4h-.49c-1.12,0-1.91-.2-2.38-.59-.47-.4-.7-1.04-.7-1.94v-1.73c0-.76.2-1.34.59-1.75.4-.41,1.01-.62,1.84-.62,1.44,0,2.52.02,3.24.05.64.03,1.59.05,2.81.05v5.18c-.61.36-1.32.67-2.13.94Z" style="fill:#2a7aad;"/><path d="M127.44,9.37c-2.05,0-3.67.4-4.86,1.19-1.19.79-2.11,1.96-2.75,3.51h-.27l-1.89-4.1h-5.83v28.5h8.04v-20.61c.42-.29.99-.54,1.73-.74.86-.23,1.76-.35,2.7-.35s1.67.1,2.21.3c.54.2.9.47,1.08.81.18.34.27.84.27,1.48v19.11h7.99v-19.38c0-3.31-.73-5.76-2.19-7.34-1.46-1.58-3.54-2.38-6.24-2.38Z" style="fill:#2a7aad;"/><path d="M157.26,31.94c-1.17.18-2.22.27-3.16.27-1.62,0-2.86-.19-3.73-.57-.86-.38-1.48-1-1.83-1.86-.36-.86-.54-2.12-.54-3.78v-3.56c0-1.62.19-2.86.57-3.73s1.03-1.49,1.94-1.89c.92-.4,2.15-.59,3.7-.59,1.8,0,3.62.2,5.45.59l.11-.16v-6.53c-.54-.22-1.39-.4-2.54-.54-1.15-.14-2.36-.22-3.62-.22-3.02,0-5.55.5-7.58,1.51-2.03,1.01-3.56,2.59-4.59,4.75-1.03,2.16-1.54,5.02-1.54,8.58s.42,6.16,1.27,8.34c.84,2.18,2.21,3.81,4.1,4.89,1.89,1.08,4.38,1.62,7.48,1.62,1.62,0,3.09-.11,4.43-.32,1.33-.22,2.45-.52,3.35-.92v-6.32l-.22-.22c-.86.25-1.88.47-3.05.65Z" style="fill:#2a7aad;"/><path d="M181.39,10.86c-2.14-.99-4.98-1.48-8.5-1.48-1.48,0-2.94.09-4.4.27-1.46.18-2.73.4-3.81.65v6.21l.27.16c.72-.14,1.81-.3,3.27-.46,1.46-.16,2.87-.24,4.24-.24,1.87,0,3.32.12,4.35.35,1.03.23,1.76.63,2.21,1.19.45.56.67,1.38.67,2.46v1.62h-.16c-.61-.14-1.5-.31-2.67-.51-1.17-.2-2.49-.3-3.97-.3-3.24,0-5.62.82-7.13,2.46-1.51,1.64-2.27,3.93-2.27,6.88s.71,5.05,2.13,6.61c1.42,1.57,3.5,2.35,6.24,2.35,2.23,0,3.97-.36,5.21-1.08,1.24-.72,2.13-1.84,2.67-3.35h.08l1.87,3.83h5.83v-16.3c0-2.84-.49-5.19-1.46-7.05-.97-1.85-2.53-3.27-4.67-4.26ZM177.56,32.5c-.81.27-1.74.4-2.78.4h-.49c-1.12,0-1.91-.2-2.38-.59-.47-.4-.7-1.04-.7-1.94v-1.73c0-.76.2-1.34.59-1.75.4-.41,1.01-.62,1.84-.62,1.44,0,2.52.02,3.24.05.64.03,1.59.05,2.81.05v5.18c-.61.36-1.32.67-2.13.94Z" style="fill:#2a7aad;"/><path d="M214.73,4.24c-2.34-1.22-5.6-1.84-9.77-1.84h-12.26v36.06h12.63c4.17,0,7.41-.65,9.72-1.94,2.3-1.3,3.92-3.26,4.86-5.88.94-2.63,1.4-6.1,1.4-10.42s-.51-7.71-1.54-10.28c-1.03-2.57-2.71-4.47-5.05-5.7ZM212.89,22.71c0,1.73-.15,3.19-.46,4.37-.31,1.19-.8,2.14-1.48,2.86-.61.54-1.36.9-2.24,1.08-.88.18-1.95.27-3.21.27h-4.48V9.59h4.54c1.44,0,2.63.13,3.59.4.95.27,1.72.71,2.29,1.32.58.58.96,1.4,1.16,2.48.2,1.08.3,2.45.3,4.1v4.8Z" style="fill:#2a7aad;"/><path d="M243.58,10.61c-1.64-.83-3.64-1.24-6.02-1.24-2.84,0-5.2.51-7.07,1.54-1.87,1.03-3.29,2.65-4.27,4.89-.97,2.23-1.46,5.09-1.46,8.58s.45,6.24,1.35,8.37c.9,2.12,2.36,3.71,4.37,4.75,2.01,1.04,4.82,1.57,8.42,1.57,1.69,0,3.32-.13,4.89-.4,1.57-.27,2.85-.57,3.86-.89v-5.88l-.22-.16c-.9.25-2.05.47-3.46.65-1.4.18-2.92.27-4.54.27-1.87,0-3.29-.14-4.26-.43-.97-.29-1.65-.75-2.02-1.38-.38-.63-.57-1.47-.57-2.51v-2.27h15.87v-5.88c0-2.34-.4-4.31-1.21-5.91-.81-1.6-2.03-2.82-3.67-3.64ZM241.07,20.98h-8.48v-.27c0-1.3.11-2.32.32-3.08.22-.76.63-1.31,1.24-1.67.61-.36,1.51-.54,2.7-.54h.49c.97,0,1.73.09,2.27.27.54.18.92.51,1.13,1s.32,1.14.32,1.97v2.32Z" style="fill:#2a7aad;"/><path d="M276.97,9.96h-8.04l-3.51,13.66c-.18,1.08-.43,2.41-.76,4-.32,1.58-.61,3.06-.86,4.43h-.27c-.25-1.37-.52-2.84-.81-4.43-.29-1.58-.56-2.92-.81-4l-3.46-13.66h-8.1l-.22.32,8.15,28.18h10.74l8.21-28.18-.27-.32Z" style="fill:#2a7aad;"/><path d="M20.89,0C9.35,0,0,9.35,0,20.89s9.35,20.89,20.89,20.89,20.89-9.35,20.89-20.89S32.42,0,20.89,0ZM20.89,38.44c-9.68,0-17.56-7.88-17.56-17.56S11.21,3.33,20.89,3.33s17.56,7.88,17.56,17.56-7.88,17.56-17.56,17.56Z" style="fill:#2a7aad;"/><path d="M20.89,5.33c-8.58,0-15.56,6.98-15.56,15.56s6.98,15.56,15.56,15.56,15.56-6.98,15.56-15.56-6.98-15.56-15.56-15.56ZM26.52,30.32c-.52.18-1.16.32-1.91.43s-1.6.15-2.55.15c-1.93,0-3.46-.35-4.61-1.04-1.15-.69-1.97-1.76-2.47-3.2-.26-.75-.45-1.65-.57-2.67h-2.45v-1.7h2.32c-.02-.45-.04-.91-.04-1.39,0-.33.02-.64.03-.95h-2.31v-1.7h2.45c.14-1.07.37-2.02.71-2.82.59-1.41,1.5-2.44,2.74-3.1,1.24-.66,2.76-.99,4.58-.99.84,0,1.62.05,2.33.15.71.1,1.26.23,1.65.39l-.58,2.48-.17.07c-.39-.07-.88-.15-1.48-.24-.6-.09-1.25-.14-1.96-.14-1.32,0-2.34.18-3.06.54s-1.25,1.01-1.58,1.94c-.16.46-.29,1.03-.37,1.7h7.83l-.41,1.7h-7.53c0,.22-.02.42-.02.65v.58c0,.4.01.76.02,1.12h6.92l-.37,1.7h-6.42c.07.6.17,1.13.29,1.55.29.96.78,1.65,1.46,2.06s1.64.61,2.89.61c.75,0,1.53-.05,2.35-.15s1.54-.22,2.18-.36l.1.07v2.55Z" style="fill:#2a7aad;"/></g></svg>